# xmcd CD database file
#
# Track frame offsets:
#	150
#	16525
#	33368
#	47923
#	61878
#	76965
#	93428
#	110195
#	125440
#	139948
#	157346
#	175756
#	190361
#	207166
#	219293
#	234258
#	245993
#	262291
#	285236
#	297678
#
# Disc length: 4230 seconds
#
# Revision: 0
# Processed by: cddbd v1.5PL3 Copyright (c) Steve Scherf et al.
# Submitted via: CDex 1.50
#
DISCID=2f108414
DTITLE=Vera Martinova - Vrcholky
DYEAR=1900
DGENRE=Country
TTITLE0=Placou tvoje modry oci
TTITLE1=Dal jen vejdi
TTITLE2=Brzy bude rano
TTITLE3=Maly dum nad skalou
TTITLE4=Az na vrcholky hor
TTITLE5=Rodeo je jako svet
TTITLE6=Toulavy dziny
TTITLE7=Nejsme si cizi
TTITLE8=Pojd se toulat oblohou
TTITLE9=Nerikej ze jsi zapomnel
TTITLE10=O pane nas
TTITLE11=Pulnocni slunce
TTITLE12=Jednou jsi cowboy
TTITLE13=Zazracny housle
TTITLE14=My blues
TTITLE15=V sedle je mi nejlip
TTITLE16=Ja se stavam vodou
TTITLE17=Nika
TTITLE18=Nebe peklo raj
TTITLE19=Hymna tulaku
EXTD=
EXTT0=
EXTT1=
EXTT2=
EXTT3=
EXTT4=
EXTT5=
EXTT6=
EXTT7=
EXTT8=
EXTT9=
EXTT10=
EXTT11=
EXTT12=
EXTT13=
EXTT14=
EXTT15=
EXTT16=
EXTT17=
EXTT18=
EXTT19=
PLAYORDER=
